<?xml version="1.0" encoding="UTF-8"?>
<svg width="128" height="128" viewBox="0 0 128 128" xmlns="http://www.w3.org/2000/svg" fill="none" stroke="#0078d7" stroke-width="4">
  <!-- Skewed cube -->
  <g transform="translate(10, 20) rotate(-15)">
    <polygon points="0,0 30,0 40,20 10,20" fill="none"/>
    <polygon points="30,0 30,30 40,50 40,20" fill="none"/>
    <polygon points="0,0 0,30 10,50 10,20" fill="none"/>
  </g>
  
  <!-- Corrected cube -->
  <g transform="translate(80, 20)">
    <rect x="0" y="0" width="30" height="30" fill="none"/>
    <line x1="0" y1="0" x2="15" y2="-15"/>
    <line x1="30" y1="0" x2="45" y2="-15"/>
    <line x1="15" y1="-15" x2="45" y2="-15"/>
    <line x1="15" y1="-15" x2="15" y2="15"/>
    <line x1="45" y1="-15" x2="45" y2="15"/>
    <line x1="15" y1="15" x2="45" y2="15"/>
  </g>
  
  <!-- Arrow -->
  <polygon points="55,35 70,30 55,25 58,30" fill="#0078d7"/>

  <!-- Grid bed -->
  <g transform="translate(10, 80)">
    <rect x="0" y="0" width="100" height="30" stroke="#0078d7"/>
    <line x1="20" y1="0" x2="20" y2="30"/>
    <line x1="40" y1="0" x2="40" y2="30"/>
    <line x1="60" y1="0" x2="60" y2="30"/>
    <line x1="80" y1="0" x2="80" y2="30"/>
    <line x1="0" y1="10" x2="100" y2="10"/>
    <line x1="0" y1="20" x2="100" y2="20"/>
  </g>
</svg>
